# xmcd CD database file
#
# Track frame offsets:
#	183
#	20813
#	44035
#	65568
#	87798
#	107910
#	133008
#	153390
#	181658
#	201983
#
# Disc length: 3052 seconds
#
# Revision: 0
# Processed by: cddbd v1.5.2PL0 Copyright (c) Steve Scherf et al.
# Submitted via: CDex 1.51
#
DISCID=8d0bea0a
DTITLE=Paul Desmond - Bossa Antigua
DYEAR=1965
DGENRE=Jazz
TTITLE0=Bossa Antigua
TTITLE1=Samba Cepeda
TTITLE2=The Night Has A Thousand Eyes
TTITLE3=O Gato
TTITLE4=O Gato
TTITLE5=Samba Cantina
TTITLE6=Curacao Doloroso
TTITLE7=A Ship Without A Sail
TTITLE8=Alianca
TTITLE9=The Girl From East 9th Strees
EXTD=YEAR: 1965
EXTT0=
EXTT1=
EXTT2=
EXTT3=
EXTT4=
EXTT5=
EXTT6=
EXTT7=
EXTT8=
EXTT9=
PLAYORDER=
